<svg xmlns="http://www.w3.org/2000/svg" width="25" height="25" fill="none"><path fill="#2D383F" d="M24.644 16.266c.777-2.432.138-5.193-.541-7.106a.444.444 0 0 0-.067-.209 16.6 16.6 0 0 0-.626-1.5.888.888 0 0 0 .56-.817V2.937a.888.888 0 0 0-.888-.888H12.176a.444.444 0 0 0-.444.47c.151 2.664-.044 4.47-.608 5.744a.387.387 0 0 0-.031.04.435.435 0 0 0 0 .067 4.596 4.596 0 0 1-.861 1.256l-.04.027v.03c-.52.497-1.12.902-1.776 1.2a30.505 30.505 0 0 1-3.506 1.304l-.226.076C.534 13.639-.008 16.133 0 17.385a.426.426 0 0 0 0 .053v3.17c0 .153.081.296.213.377a12.9 12.9 0 0 0 3.262 1.411.444.444 0 0 0 .564-.444v-.102h.652v.444a.444.444 0 0 0 .373.444c.386.062.773.11 1.15.142a.444.444 0 0 0 .48-.444v-.56h.652v.63c0 .246.198.445.444.445.372 0 .745 0 1.145-.053a.444.444 0 0 0 .408-.444v-.577h.653v.39a.444.444 0 0 0 .514.444 15.04 15.04 0 0 0 2.402-.572l.07-.031c3.108-1.776 5.079-.316 5.159-.253.077.06.172.092.27.093h.55a.444.444 0 0 0 .445-.444v-.75h.634v.74c0 .246.199.445.444.445h1.43a.444.444 0 0 0 .443-.444v-.741h.657v.74c0 .246.199.445.444.445h1.096a.444.444 0 0 0 .444-.444V16.71a.444.444 0 0 0-.355-.444ZM14.111 2.946h8.949V6.62h-8.95V2.946Zm-5.58 8.85.005.027c.364.296.7.624 1.003.981a.839.839 0 0 0-.12.444.848.848 0 1 0 .924-.839c-.28-.383-.6-.735-.954-1.052a6.89 6.89 0 0 0 1.114-.79c.43.404.83.839 1.198 1.3a.848.848 0 1 0 .795-.568h-.107c-.39-.49-.813-.951-1.27-1.38.212-.26.4-.54.56-.834.687.357 1.351.757 1.988 1.198a.857.857 0 1 0 .475-.759 19.62 19.62 0 0 0-2.09-1.234c.484-1.287.692-2.996.595-5.326h.58v3.675c0 .49.398.888.889.888h8.318c.115.235.31.643.523 1.176h-.182a4.883 4.883 0 0 0-2.876 8.802c-3.59.945-8.993 2.068-13.538 1.775.84-3.351-.164-5.415-.816-6.32a29.523 29.523 0 0 0 2.987-1.164Zm-3.878 1.417c.479.563 1.73 2.459.812 5.943A11.15 11.15 0 0 1 .91 17.78a2.82 2.82 0 0 1-.031-.306v-.032c-.036-.945.32-2.991 3.773-4.23Zm19.25 7.838v-.741a.444.444 0 0 0-.444-.444h-1.54a.444.444 0 0 0-.444.444v.741h-.546v-.741a.444.444 0 0 0-.444-.444h-1.531a.444.444 0 0 0-.444.444v.723c-.604-.377-2.81-1.473-5.939.275a13.86 13.86 0 0 1-1.7.444v-.306a.444.444 0 0 0-.444-.444H8.896a.444.444 0 0 0-.444.444v.608h-.226v-.621a.444.444 0 0 0-.444-.444h-1.54a.444.444 0 0 0-.444.444v.528l-.227-.031v-.497a.444.444 0 0 0-.444-.444h-1.54a.444.444 0 0 0-.444.39c-.787-.259-1.546-.6-2.263-1.016v-1.589c1.935 1.025 4.438 1.412 7.101 1.412 7.076 0 15.172-2.708 16.126-3.032l.004 3.897h-.208Zm-.218-4.683c-.377.125-1.305.444-2.587.786a3.995 3.995 0 0 1 2.201-7.563l.005.013c.652 1.882 1.238 4.567.381 6.764Z"/><path fill="#2D383F" d="M15.82 3.483a1.292 1.292 0 1 0 .001 2.583 1.292 1.292 0 0 0 0-2.583Zm0 1.695a.404.404 0 1 1 0-.807.404.404 0 0 1 0 .807Z"/></svg>