<svg xmlns="http://www.w3.org/2000/svg" width="25" height="25" fill="none"><g fill="#2D383F"><path d="M24.17 22.28V6.701a.463.463 0 0 0-.602-.463v.023l-2.084.653a6.253 6.253 0 0 0 .384-1.82 5.094 5.094 0 0 0-10.188 0 6.02 6.02 0 0 0 .356 1.737L8.591 5.599a.493.493 0 0 0-.12 0h-.038a.463.463 0 0 0-.162.032l-7.146 2.78a.463.463 0 0 0-.296.388v15.597a.463.463 0 0 0 .63.431l6.984-2.704 7.965 2.853c.096.032.2.032.297 0l7.14-2.233a.463.463 0 0 0 .325-.463ZM16.774.926a4.168 4.168 0 0 1 4.168 4.168c0 1.811-2.718 6.813-4.168 9.262-1.45-2.468-4.168-7.474-4.168-9.262A4.168 4.168 0 0 1 16.774.926Zm6.484 21.035-6.234 1.95v-3.534a.463.463 0 0 0-.926 0v3.501L8.9 21.303V18.34a.463.463 0 0 0-.926 0v2.964l-6.22 2.422v-7.16l2.288-.926a.463.463 0 1 0-.343-.856l-1.945.782V9.12l6.22-2.409V8.1a.463.463 0 0 0 .926 0V6.692l3.552 1.274a64.32 64.32 0 0 0 3.923 7.558.463.463 0 0 0 .792 0 64.587 64.587 0 0 0 3.908-7.512l2.168-.68.014 7.59-2.348.57a.467.467 0 0 0 .11.925.46.46 0 0 0 .112 0l2.126-.518v6.062Z"/><path d="M16.756 2.403a2.69 2.69 0 1 0 0 5.382 2.69 2.69 0 0 0 0-5.382Zm0 4.455a1.769 1.769 0 0 1-1.746-1.764h-.018a1.764 1.764 0 1 1 1.764 1.764Zm-6.058 7.11v.014l-2.241-.968a.463.463 0 0 0-.357 0l-1.894.764a.464.464 0 0 0 .347.861l1.714-.69 2.06.87a.464.464 0 0 0 .186.038.463.463 0 0 0 .185-.89Zm7.571 2.648a.463.463 0 0 0-.523-.32l.004-.036-1.148.278-1.945-.843a.465.465 0 0 0-.37.852l2.083.926a.462.462 0 0 0 .185.037h.112l1.296-.315a.463.463 0 0 0 .306-.579Z"/></g><defs><clipPath id="a"><path fill="#fff" d="M0 0h25v25H0z"/></clipPath></defs></svg>
