<svg xmlns="http://www.w3.org/2000/svg" width="25" height="25" fill="none"><g><path fill="#2D383F" d="m24.591 18.083-4.907-5.613h2.371a.501.501 0 0 0 .396-.807l-3.94-5.178h2.005a.501.501 0 0 0 .376-.832L16.071.17a.501.501 0 0 0-.752 0l-4.827 5.478a.501.501 0 0 0 .376.837h2.03l-1.213 1.584-3.248-3.694a.501.501 0 0 0-.752 0L3.56 9.06a.501.501 0 0 0 .376.832h1.589L2.227 14.21a.501.501 0 0 0 .396.797h1.854L.403 19.692a.501.501 0 0 0 .375.827h5.544v3.509c0 .537.435.972.972.972h1.529a.972.972 0 0 0 .977-.967v-3.514h4.16v3.509c0 .537.436.972.973.972h1.529a.972.972 0 0 0 .972-.972v-5.113h6.781a.501.501 0 0 0 .376-.832ZM8.798 23.998l-1.474.03-.03-3.509h1.504v3.479Zm5.162-4.481H1.881l4.1-4.677a.501.501 0 0 0-.386-.837H3.64l3.298-4.315a.501.501 0 0 0-.396-.807H5.04l3.007-3.423 3.007 3.413-2.115 2.797a.501.501 0 0 0 .396.807h2.376l-4.907 5.613a.501.501 0 0 0 .376.832h6.781v.597Zm2.471 4.47-1.468.04-.03-5.112h1.503l-.005 5.073Zm.03-6.074h-8.18l4.908-5.614a.501.501 0 0 0-.376-.832h-2.461l3.96-5.182a.501.501 0 0 0-.397-.802h-1.92l3.72-4.22 3.699 4.22h-1.935a.501.501 0 0 0-.396.807l3.935 5.177h-2.441a.501.501 0 0 0-.376.832l4.907 5.614h-6.646Z"/></g><defs><clipPath id="a"><path fill="#fff" d="M0 0h25v25H0z"/></clipPath></defs></svg>
